<svg xmlns="http://www.w3.org/2000/svg" xmlns:xlink="http://www.w3.org/1999/xlink" width="50" zoomAndPan="magnify" viewBox="0 0 37.5 37.499999" height="50" preserveAspectRatio="xMidYMid meet" version="1.0"><defs><g/></defs><g fill="#000000" fill-opacity="1"><g transform="translate(2.627562, 28.421747)"><g><path d="M 20.484375 -22.953125 C 20.316406 -24.238281 17.882812 -24.335938 17.222656 -23.578125 C 17.125 -23.480469 16.992188 -23.183594 16.792969 -23.019531 C 16.464844 -22.722656 16.597656 -22.851562 16.203125 -22.722656 C 15.28125 -22.457031 14.359375 -22.195312 13.433594 -21.898438 C 12.777344 -21.699219 12.019531 -21.570312 11.359375 -21.273438 C 10.964844 -21.109375 10.734375 -20.910156 10.308594 -20.777344 C 8.890625 -20.382812 7.375 -20.085938 6.15625 -19.460938 C 5.335938 -19.035156 4.3125 -18.738281 4.246094 -17.585938 C 4.246094 -17.253906 4.378906 -16.992188 4.542969 -16.695312 C 4.742188 -16.300781 5.003906 -16.167969 5.300781 -15.9375 L 5.992188 -15.3125 C 6.421875 -14.917969 7.144531 -14.359375 7.738281 -14.390625 C 7.773438 -14.390625 8.332031 -14.589844 8.363281 -14.652344 C 8.660156 -15.015625 7.640625 -15.773438 7.441406 -16.035156 C 7.078125 -16.496094 6.554688 -17.222656 6.71875 -17.847656 C 7.078125 -19.066406 9.417969 -19.496094 10.472656 -19.789062 C 11.296875 -20.023438 12.085938 -20.449219 12.910156 -20.679688 C 13.832031 -20.945312 14.71875 -21.074219 15.640625 -21.4375 C 13.632812 -18.242188 12.382812 -14.554688 11.097656 -11.066406 C 9.746094 -7.410156 8.464844 -3.6875 6.71875 -0.199219 C 6.324219 0.625 5.300781 3.128906 4.015625 2.4375 C 3.359375 2.109375 3.03125 1.183594 2.800781 0.558594 C 2.4375 -0.328125 2.140625 -1.285156 1.878906 -2.207031 C 1.382812 -4.015625 1.183594 -5.828125 0.953125 -7.707031 C 0.890625 -8.035156 0.757812 -9.054688 0.230469 -8.890625 C -0.230469 -8.726562 0.132812 -6.15625 0.0976562 -5.730469 C 0 -3.886719 0.132812 -2.007812 0.59375 -0.199219 C 1.019531 1.515625 1.878906 3.261719 3.492188 4.148438 C 4.214844 4.542969 5.105469 4.808594 5.925781 4.808594 C 6.785156 4.808594 7.277344 4.3125 7.738281 3.6875 C 9.78125 1.054688 10.933594 -2.109375 12.183594 -5.171875 C 12.546875 -6.027344 12.742188 -6.847656 12.972656 -7.671875 C 13.203125 -8.59375 13.699219 -9.484375 14.0625 -10.371094 C 14.753906 -12.085938 15.445312 -13.796875 16.234375 -15.511719 L 17.617188 -18.308594 C 17.945312 -18.902344 17.980469 -19.429688 18.375 -19.957031 C 18.96875 -20.679688 19.558594 -21.371094 20.152344 -22.128906 C 20.316406 -22.359375 20.515625 -22.621094 20.484375 -22.953125 Z M 13.664062 -11.921875 C 13.039062 -10.503906 12.347656 -9.320312 11.789062 -7.871094 L 13.863281 -13.304688 C 14.160156 -14.128906 14.554688 -14.882812 14.949219 -15.675781 C 14.457031 -14.523438 14.191406 -13.039062 13.664062 -11.921875 Z M 13.664062 -11.921875 "/></g></g></g><g fill="#000000" fill-opacity="1"><g transform="translate(17.938836, 28.421747)"><g><path d="M 15.640625 -4.347656 C 14.917969 -4.414062 14.128906 -4.445312 13.371094 -4.414062 C 11.097656 -4.28125 8.824219 -3.722656 6.652344 -3.0625 C 8.296875 -7.246094 9.121094 -11.691406 10.539062 -15.972656 C 11.230469 -18.046875 11.988281 -20.351562 13.335938 -22.097656 C 13.632812 -22.492188 14.359375 -23.378906 14.984375 -23.214844 C 15.511719 -23.050781 15.246094 -21.699219 15.148438 -21.339844 C 15.28125 -21.800781 15.839844 -23.675781 14.488281 -23.183594 C 13.039062 -22.65625 12.183594 -20.546875 11.625 -19.265625 C 12.117188 -20.449219 12.679688 -21.765625 13.601562 -22.6875 C 13.996094 -23.050781 14.949219 -23.777344 15.378906 -23.148438 C 15.773438 -22.558594 15.28125 -21.207031 15.113281 -20.648438 C 14.785156 -19.558594 14.359375 -18.472656 13.863281 -17.453125 C 13.863281 -17.519531 14.292969 -18.574219 14.257812 -18.574219 C 14.128906 -18.605469 12.972656 -16.203125 12.972656 -16.167969 L 13.007812 -16.167969 C 12.972656 -16.101562 12.910156 -16.070312 12.910156 -16.070312 C 12.644531 -15.574219 13.171875 -15.34375 13.601562 -15.3125 C 14.257812 -15.246094 14.984375 -15.574219 15.511719 -15.972656 C 16.894531 -17.023438 18.078125 -19.496094 17.980469 -21.238281 C 17.882812 -22.65625 17.355469 -23.675781 15.972656 -24.433594 C 15.214844 -24.863281 14.257812 -25.191406 13.335938 -25.125 C 12.019531 -25.058594 11 -24.203125 10.273438 -23.148438 C 9.714844 -22.292969 9.351562 -21.371094 9.023438 -20.449219 L 8.5625 -19.066406 C 8.429688 -18.703125 8.066406 -18.113281 8.132812 -17.75 C 8.132812 -17.683594 8.363281 -18.175781 8.398438 -18.210938 C 8.199219 -17.585938 8.035156 -16.925781 7.835938 -16.265625 C 7.804688 -16.300781 7.9375 -16.761719 7.902344 -16.761719 C 7.738281 -16.761719 7.179688 -14.652344 7.113281 -14.488281 C 6.785156 -13.304688 6.421875 -12.085938 6.289062 -10.835938 C 6.15625 -9.679688 5.992188 -8.628906 5.695312 -7.507812 C 5.566406 -6.882812 5.367188 -6.289062 5.203125 -5.664062 C 5.105469 -5.234375 4.578125 -4.050781 4.742188 -3.621094 C 4.773438 -3.589844 4.808594 -3.589844 4.839844 -3.621094 C 4.742188 -3.324219 4.710938 -3.0625 4.609375 -2.800781 C 4.609375 -2.800781 4.773438 -3.492188 4.742188 -3.492188 C 4.578125 -3.390625 4.542969 -2.601562 4.542969 -2.632812 C 4.347656 -2.109375 3.722656 -2.109375 3.226562 -1.878906 C 2.800781 -1.710938 2.4375 -1.449219 2.109375 -1.121094 C 1.414062 -0.429688 0.527344 0.789062 0.855469 1.878906 C 1.085938 2.667969 1.976562 2.863281 2.699219 2.765625 C 3.03125 2.699219 4.050781 2.371094 3.984375 1.941406 C 3.953125 1.878906 3.457031 2.207031 3.292969 2.273438 C 3.523438 2.109375 3.785156 1.878906 3.984375 1.679688 C 3.953125 1.777344 4.609375 1.054688 4.675781 0.953125 C 5.039062 0.460938 5.464844 0.261719 5.992188 0 C 6.882812 -0.492188 7.804688 -0.953125 8.757812 -1.285156 C 10.800781 -2.007812 13.039062 -2.074219 14.984375 -3.0625 C 15.476562 -3.292969 16.792969 -4.214844 15.640625 -4.347656 Z M 8.695312 -18.671875 C 9.15625 -20.023438 9.746094 -21.273438 10.601562 -22.425781 C 11.296875 -23.378906 12.085938 -23.972656 13.140625 -24.203125 C 10.503906 -23.546875 9.582031 -19.921875 8.5625 -17.683594 C 8.234375 -16.894531 7.9375 -16.101562 7.671875 -15.246094 C 7.96875 -16.398438 8.332031 -17.519531 8.695312 -18.671875 Z M 10.4375 -16.101562 L 10.4375 -16.136719 L 10.4375 -16.070312 L 9.679688 -13.796875 C 9.910156 -14.589844 10.175781 -15.34375 10.4375 -16.136719 Z M 3.261719 2.304688 C 3.261719 2.304688 3.261719 2.273438 3.292969 2.273438 Z M 3.261719 2.304688 "/></g></g></g></svg>